Coordinates
version=1
nRows=9
nColumns=24
inDegrees=yes

Units are S.I. units (second, meters, Newtons, ...)
Angles are in degrees.

endheader
time	pelvis_tilt	pelvis_list	pelvis_rotation	pelvis_tx	pelvis_ty	pelvis_tz	hip_flexion_r	hip_adduction_r	hip_rotation_r	knee_angle_r	ankle_angle_r	subtalar_angle_r	mtp_angle_r	hip_flexion_l	hip_adduction_l	hip_rotation_l	knee_angle_l	ankle_angle_l	subtalar_angle_l	mtp_angle_l	lumbar_extension	lumbar_bending	lumbar_rotation
      3.94500000	     -1.24628647	      7.04693798	     -2.64845866	     -0.41549770	      0.93796405	      0.21891455	     22.66894716	     -6.04559090	      1.97881085	    -65.56496243	     15.05261607	     -1.28658204	      0.00000000	     12.48932828	     12.91616176	      2.83685517	    -22.19370264	     19.84535970	    -10.01237525	      0.00000000	    -11.31395414	    -11.33998482	     -7.95365855
      3.95000000	     -1.18670923	      6.81062100	     -2.41393311	     -0.40839535	      0.93946783	      0.21841840	     23.06564296	     -5.72854980	      1.92480569	    -64.48015130	     15.53507877	     -0.78041263	      0.00000000	     11.50008211	     12.80076024	      3.50360617	    -21.46602534	     19.68750438	    -10.42770231	      0.00000000	    -11.44773463	    -10.98865185	     -8.15650957
      3.95500000	     -1.13848825	      6.57432127	     -2.17352343	     -0.40129972	      0.94084576	      0.21789766	     23.44829188	     -5.42235038	      1.85498622	    -63.32070076	     15.97401050	     -0.34093722	      0.00000000	     10.53555818	     12.67915524	      4.16689455	    -20.74951194	     19.51539197	    -10.89642346	      0.00000000	    -11.56312189	    -10.62674038	     -8.34399756
      3.96000000	     -1.08612783	      6.34624944	     -1.92181901	     -0.39424233	      0.94215095	      0.21740081	     23.79823116	     -5.12163794	      1.79972684	    -62.08500956	     16.34877469	      0.04317834	      0.00000000	      9.57519052	     12.55888417	      4.87002602	    -20.03759141	     19.28704494	    -11.41928818	      0.00000000	    -11.68746290	    -10.28546140	     -8.55738794
      3.96500000	     -1.04258615	      6.12192220	     -1.66053081	     -0.38718318	      0.94332689	      0.21690855	     24.12897908	     -4.83231523	      1.73706979	    -60.77848743	     16.68698409	      0.36687765	      0.00000000	      8.63748262	     12.43355530	      5.57037967	    -19.34116342	     19.05117253	    -11.98557488	      0.00000000	    -11.79818923	     -9.94804352	     -8.77115784
      3.97000000	     -1.00562052	      5.90076829	     -1.38777644	     -0.38013810	      0.94438016	      0.21639215	     24.43894724	     -4.55734413	      1.66775987	    -59.40237512	     16.98721421	      0.63659901	      0.00000000	      7.72014802	     12.30409580	      6.27074636	    -18.65961994	     18.80624282	    -12.58106438	      0.00000000	    -11.89805691	     -9.60701530	     -8.98459376
      3.97500000	     -0.97165877	      5.68591380	     -1.10613325	     -0.37311449	      0.94531381	      0.21586460	     24.72595148	     -4.29785640	      1.60072288	    -57.96043950	     17.25348271	      0.86402675	      0.00000000	      6.81918763	     12.17230535	      6.96852676	    -17.99086393	     18.54845151	    -13.20521353	      0.00000000	    -11.99495076	     -9.27001779	     -9.20801513
      3.98000000	     -0.94295271	      5.47682000	     -0.81356796	     -0.36609511	      0.94612518	      0.21532917	     24.98876745	     -4.05317882	      1.53707945	    -56.45055956	     17.48504573	      1.04736326	      0.00000000	      5.93848587	     12.03712540	      7.66046812	    -17.34241245	     18.29056570	    -13.84623231	      0.00000000	    -12.08235959	     -8.93783014	     -9.43979192
      3.98500000	     -0.92056722	      5.27599590	     -0.51359397	     -0.35909659	      0.94681188	      0.21478373	     25.23102071	     -3.82618910	      1.48274521	    -54.87717287	     17.68851987	      1.19811076	      0.00000000	      5.08319224	     11.90042895	      8.33230614	    -16.71805699	     18.03505816	    -14.48833574	      0.00000000	    -12.16019853	     -8.61387054	     -9.67948752
